<mxfile host="app.diagrams.net" agent="Mozilla/5.0 (Windows NT 10.0; Win64; x64) AppleWebKit/537.36 (KHTML, like Gecko) Chrome/130.0.0.0 Safari/537.36" version="24.8.6">
  <diagram name="Page-1" id="7QY9wF18wrHHUqUaSjf6">
    <mxGraphModel dx="2100" dy="1060" grid="1" gridSize="10" guides="1" tooltips="1" connect="1" arrows="1" fold="1" page="1" pageScale="1" pageWidth="850" pageHeight="1100" math="0" shadow="0">
      <root>
        <mxCell id="0" />
        <mxCell id="1" parent="0" />
        <mxCell id="9aL6kzewTdgIK__dD09E-5" value="Client" style="shape=folder;fontStyle=1;tabWidth=110;tabHeight=30;tabPosition=left;html=1;boundedLbl=1;labelInHeader=1;container=1;collapsible=0;whiteSpace=wrap;" parent="1" vertex="1">
          <mxGeometry x="100" y="20" width="360" height="250" as="geometry" />
        </mxCell>
        <mxCell id="9aL6kzewTdgIK__dD09E-6" value="" style="html=1;strokeColor=none;resizeWidth=1;resizeHeight=1;fillColor=none;part=1;connectable=0;allowArrows=0;deletable=0;whiteSpace=wrap;" parent="9aL6kzewTdgIK__dD09E-5" vertex="1">
          <mxGeometry width="310.90909090909093" height="147.3684210526316" relative="1" as="geometry">
            <mxPoint y="30" as="offset" />
          </mxGeometry>
        </mxCell>
        <mxCell id="9aL6kzewTdgIK__dD09E-1" value="Browser" style="verticalAlign=top;align=left;shape=cube;size=10;direction=south;fontStyle=0;html=1;boundedLbl=1;spacingLeft=5;whiteSpace=wrap;" parent="9aL6kzewTdgIK__dD09E-5" vertex="1">
          <mxGeometry x="62.90181818181818" y="54.95" width="234.18000000000004" height="165.05" as="geometry" />
        </mxCell>
        <mxCell id="9aL6kzewTdgIK__dD09E-39" value="«component»&lt;br&gt;&lt;b&gt;User Interface&lt;br&gt;&lt;/b&gt;" style="html=1;dropTarget=0;whiteSpace=wrap;fillColor=#dae8fc;strokeColor=#6c8ebf;" parent="9aL6kzewTdgIK__dD09E-5" vertex="1">
          <mxGeometry x="89.99000000000001" y="100" width="180" height="90" as="geometry" />
        </mxCell>
        <mxCell id="9aL6kzewTdgIK__dD09E-40" value="" style="shape=module;jettyWidth=8;jettyHeight=4;" parent="9aL6kzewTdgIK__dD09E-39" vertex="1">
          <mxGeometry x="1" width="20" height="20" relative="1" as="geometry">
            <mxPoint x="-27" y="7" as="offset" />
          </mxGeometry>
        </mxCell>
        <mxCell id="9aL6kzewTdgIK__dD09E-11" value="Bussines server" style="shape=folder;fontStyle=1;tabWidth=110;tabHeight=30;tabPosition=left;html=1;boundedLbl=1;labelInHeader=1;container=1;collapsible=0;whiteSpace=wrap;" parent="1" vertex="1">
          <mxGeometry x="100" y="300" width="910" height="755" as="geometry" />
        </mxCell>
        <mxCell id="9aL6kzewTdgIK__dD09E-12" value="" style="html=1;strokeColor=none;resizeWidth=1;resizeHeight=1;fillColor=none;part=1;connectable=0;allowArrows=0;deletable=0;whiteSpace=wrap;" parent="9aL6kzewTdgIK__dD09E-11" vertex="1">
          <mxGeometry width="910" height="344.19117647058823" relative="1" as="geometry">
            <mxPoint y="-50" as="offset" />
          </mxGeometry>
        </mxCell>
        <mxCell id="9aL6kzewTdgIK__dD09E-13" value="Database connector" style="verticalAlign=top;align=left;shape=cube;size=10;direction=south;fontStyle=0;html=1;boundedLbl=1;spacingLeft=5;whiteSpace=wrap;" parent="9aL6kzewTdgIK__dD09E-11" vertex="1">
          <mxGeometry x="530" y="300" width="347.1" height="440" as="geometry" />
        </mxCell>
        <mxCell id="9aL6kzewTdgIK__dD09E-22" value="Services" style="verticalAlign=top;align=left;shape=cube;size=10;direction=south;fontStyle=0;html=1;boundedLbl=1;spacingLeft=5;whiteSpace=wrap;" parent="9aL6kzewTdgIK__dD09E-11" vertex="1">
          <mxGeometry x="42.9" y="94.375" width="420.48" height="638.4191176470589" as="geometry" />
        </mxCell>
        <mxCell id="9aL6kzewTdgIK__dD09E-43" value="Secyrity Configuraction" style="verticalAlign=top;align=left;shape=cube;size=10;direction=south;fontStyle=0;html=1;boundedLbl=1;spacingLeft=5;whiteSpace=wrap;" parent="9aL6kzewTdgIK__dD09E-11" vertex="1">
          <mxGeometry x="563.55" y="42.190588235294115" width="280" height="202.07352941176472" as="geometry" />
        </mxCell>
        <mxCell id="9aL6kzewTdgIK__dD09E-37" value="«component»&lt;br&gt;&lt;b style=&quot;border-color: var(--border-color);&quot;&gt;ExerciseDataProvider&lt;/b&gt;&lt;b&gt;&lt;br&gt;&lt;/b&gt;" style="html=1;dropTarget=0;whiteSpace=wrap;fillColor=#d5e8d4;strokeColor=#82b366;" parent="9aL6kzewTdgIK__dD09E-11" vertex="1">
          <mxGeometry x="572.9" y="539.9985294117648" width="180" height="99.9264705882353" as="geometry" />
        </mxCell>
        <mxCell id="9aL6kzewTdgIK__dD09E-38" value="" style="shape=module;jettyWidth=8;jettyHeight=4;" parent="9aL6kzewTdgIK__dD09E-37" vertex="1">
          <mxGeometry x="1" width="20" height="20" relative="1" as="geometry">
            <mxPoint x="-27" y="7" as="offset" />
          </mxGeometry>
        </mxCell>
        <mxCell id="9aL6kzewTdgIK__dD09E-35" value="«component»&lt;br&gt;&lt;b style=&quot;border-color: var(--border-color);&quot;&gt;FoodDataProvider&lt;/b&gt;&lt;b&gt;&lt;br&gt;&lt;/b&gt;" style="html=1;dropTarget=0;whiteSpace=wrap;fillColor=#d5e8d4;strokeColor=#82b366;" parent="9aL6kzewTdgIK__dD09E-11" vertex="1">
          <mxGeometry x="572.9" y="441.2494117647059" width="180" height="99.9264705882353" as="geometry" />
        </mxCell>
        <mxCell id="9aL6kzewTdgIK__dD09E-36" value="" style="shape=module;jettyWidth=8;jettyHeight=4;" parent="9aL6kzewTdgIK__dD09E-35" vertex="1">
          <mxGeometry x="1" width="20" height="20" relative="1" as="geometry">
            <mxPoint x="-27" y="7" as="offset" />
          </mxGeometry>
        </mxCell>
        <mxCell id="9aL6kzewTdgIK__dD09E-33" value="«component»&lt;br&gt;&lt;b&gt;User&lt;/b&gt;&lt;b style=&quot;border-color: var(--border-color);&quot;&gt;DataProvider&lt;/b&gt;&lt;b&gt;&lt;br&gt;&lt;/b&gt;" style="html=1;dropTarget=0;whiteSpace=wrap;fillColor=#d5e8d4;strokeColor=#82b366;" parent="9aL6kzewTdgIK__dD09E-11" vertex="1">
          <mxGeometry x="572.9" y="340" width="180" height="99.9264705882353" as="geometry" />
        </mxCell>
        <mxCell id="9aL6kzewTdgIK__dD09E-34" value="" style="shape=module;jettyWidth=8;jettyHeight=4;" parent="9aL6kzewTdgIK__dD09E-33" vertex="1">
          <mxGeometry x="1" width="20" height="20" relative="1" as="geometry">
            <mxPoint x="-27" y="7" as="offset" />
          </mxGeometry>
        </mxCell>
        <mxCell id="9aL6kzewTdgIK__dD09E-71" value="«component»&lt;br&gt;&lt;b&gt;Authorization&lt;/b&gt;" style="html=1;dropTarget=0;whiteSpace=wrap;fillColor=#f5f5f5;strokeColor=#666666;fontColor=#333333;" parent="9aL6kzewTdgIK__dD09E-11" vertex="1">
          <mxGeometry x="597.9" y="119.99823529411765" width="180" height="99.9264705882353" as="geometry" />
        </mxCell>
        <mxCell id="9aL6kzewTdgIK__dD09E-72" value="" style="shape=module;jettyWidth=8;jettyHeight=4;" parent="9aL6kzewTdgIK__dD09E-71" vertex="1">
          <mxGeometry x="1" width="20" height="20" relative="1" as="geometry">
            <mxPoint x="-27" y="7" as="offset" />
          </mxGeometry>
        </mxCell>
        <mxCell id="9aL6kzewTdgIK__dD09E-25" value="«component»&lt;br&gt;&lt;b&gt;UserManager&lt;br&gt;&lt;/b&gt;" style="html=1;dropTarget=0;whiteSpace=wrap;fillColor=#fff2cc;strokeColor=#d6b656;" parent="9aL6kzewTdgIK__dD09E-11" vertex="1">
          <mxGeometry x="71.32358208955239" y="133.23529411764707" width="180" height="99.9264705882353" as="geometry" />
        </mxCell>
        <mxCell id="9aL6kzewTdgIK__dD09E-26" value="" style="shape=module;jettyWidth=8;jettyHeight=4;" parent="9aL6kzewTdgIK__dD09E-25" vertex="1">
          <mxGeometry x="1" width="20" height="20" relative="1" as="geometry">
            <mxPoint x="-27" y="7" as="offset" />
          </mxGeometry>
        </mxCell>
        <mxCell id="9aL6kzewTdgIK__dD09E-27" value="«component»&lt;br&gt;&lt;b&gt;FoodManager&lt;br&gt;&lt;/b&gt;" style="html=1;dropTarget=0;whiteSpace=wrap;fillColor=#fff2cc;strokeColor=#d6b656;" parent="9aL6kzewTdgIK__dD09E-11" vertex="1">
          <mxGeometry x="71.32895522388063" y="255.36764705882354" width="180" height="99.9264705882353" as="geometry" />
        </mxCell>
        <mxCell id="9aL6kzewTdgIK__dD09E-28" value="" style="shape=module;jettyWidth=8;jettyHeight=4;" parent="9aL6kzewTdgIK__dD09E-27" vertex="1">
          <mxGeometry x="1" width="20" height="20" relative="1" as="geometry">
            <mxPoint x="-27" y="7" as="offset" />
          </mxGeometry>
        </mxCell>
        <mxCell id="9aL6kzewTdgIK__dD09E-31" value="«component»&lt;br&gt;&lt;b&gt;ExerciseManager&lt;br&gt;&lt;/b&gt;" style="html=1;dropTarget=0;whiteSpace=wrap;fillColor=#fff2cc;strokeColor=#d6b656;" parent="9aL6kzewTdgIK__dD09E-11" vertex="1">
          <mxGeometry x="71.32402985074637" y="377.5" width="180" height="99.9264705882353" as="geometry" />
        </mxCell>
        <mxCell id="9aL6kzewTdgIK__dD09E-32" value="" style="shape=module;jettyWidth=8;jettyHeight=4;" parent="9aL6kzewTdgIK__dD09E-31" vertex="1">
          <mxGeometry x="1" width="20" height="20" relative="1" as="geometry">
            <mxPoint x="-27" y="7" as="offset" />
          </mxGeometry>
        </mxCell>
        <mxCell id="9aL6kzewTdgIK__dD09E-29" value="«component»&lt;br&gt;&lt;b&gt;ChartsManager&lt;br&gt;&lt;/b&gt;" style="html=1;dropTarget=0;whiteSpace=wrap;fillColor=#fff2cc;strokeColor=#d6b656;" parent="9aL6kzewTdgIK__dD09E-11" vertex="1">
          <mxGeometry x="71.32253731343295" y="499.6323529411765" width="180" height="99.9264705882353" as="geometry" />
        </mxCell>
        <mxCell id="9aL6kzewTdgIK__dD09E-30" value="" style="shape=module;jettyWidth=8;jettyHeight=4;" parent="9aL6kzewTdgIK__dD09E-29" vertex="1">
          <mxGeometry x="1" width="20" height="20" relative="1" as="geometry">
            <mxPoint x="-27" y="7" as="offset" />
          </mxGeometry>
        </mxCell>
        <mxCell id="9aL6kzewTdgIK__dD09E-76" style="edgeStyle=orthogonalEdgeStyle;rounded=0;orthogonalLoop=1;jettySize=auto;html=1;exitX=0;exitY=0;exitDx=96;exitDy=280;exitPerimeter=0;entryX=0.405;entryY=-0.003;entryDx=0;entryDy=0;entryPerimeter=0;" parent="9aL6kzewTdgIK__dD09E-11" source="9aL6kzewTdgIK__dD09E-43" target="9aL6kzewTdgIK__dD09E-22" edge="1">
          <mxGeometry relative="1" as="geometry" />
        </mxCell>
        <mxCell id="9aL6kzewTdgIK__dD09E-77" style="edgeStyle=orthogonalEdgeStyle;rounded=0;orthogonalLoop=1;jettySize=auto;html=1;entryX=0;entryY=0;entryDx=0;entryDy=150;entryPerimeter=0;startArrow=classic;startFill=1;" parent="9aL6kzewTdgIK__dD09E-11" target="9aL6kzewTdgIK__dD09E-13" edge="1">
          <mxGeometry relative="1" as="geometry">
            <mxPoint x="699" y="240" as="sourcePoint" />
          </mxGeometry>
        </mxCell>
        <mxCell id="pcDt08t7TPFQF_xxmRWC-2" style="edgeStyle=orthogonalEdgeStyle;rounded=0;orthogonalLoop=1;jettySize=auto;html=1;exitX=0;exitY=0;exitDx=177.22;exitDy=310;exitPerimeter=0;entryX=0.575;entryY=-0.005;entryDx=0;entryDy=0;entryPerimeter=0;" parent="9aL6kzewTdgIK__dD09E-11" source="9aL6kzewTdgIK__dD09E-13" target="9aL6kzewTdgIK__dD09E-22" edge="1">
          <mxGeometry relative="1" as="geometry" />
        </mxCell>
        <mxCell id="V7U5jhwy2f4FSf6HYXk9-1" value="«component»&lt;b&gt;&lt;br&gt;AIRecommendationsManager&lt;br&gt;&lt;/b&gt;" style="html=1;dropTarget=0;whiteSpace=wrap;fillColor=#fff2cc;strokeColor=#d6b656;" parent="9aL6kzewTdgIK__dD09E-11" vertex="1">
          <mxGeometry x="71.32253731343297" y="627.3161764705883" width="180" height="99.9264705882353" as="geometry" />
        </mxCell>
        <mxCell id="V7U5jhwy2f4FSf6HYXk9-2" value="" style="shape=module;jettyWidth=8;jettyHeight=4;" parent="V7U5jhwy2f4FSf6HYXk9-1" vertex="1">
          <mxGeometry x="1" width="20" height="20" relative="1" as="geometry">
            <mxPoint x="-27" y="7" as="offset" />
          </mxGeometry>
        </mxCell>
        <mxCell id="V7U5jhwy2f4FSf6HYXk9-4" value="«component»&lt;br&gt;&lt;b style=&quot;border-color: var(--border-color);&quot;&gt;RecommendationDataProvider&lt;/b&gt;&lt;b&gt;&lt;br&gt;&lt;/b&gt;" style="html=1;dropTarget=0;whiteSpace=wrap;fillColor=#d5e8d4;strokeColor=#82b366;" parent="9aL6kzewTdgIK__dD09E-11" vertex="1">
          <mxGeometry x="572.9" y="639.9285294117649" width="180" height="99.9264705882353" as="geometry" />
        </mxCell>
        <mxCell id="V7U5jhwy2f4FSf6HYXk9-5" value="" style="shape=module;jettyWidth=8;jettyHeight=4;" parent="V7U5jhwy2f4FSf6HYXk9-4" vertex="1">
          <mxGeometry x="1" width="20" height="20" relative="1" as="geometry">
            <mxPoint x="-27" y="7" as="offset" />
          </mxGeometry>
        </mxCell>
        <mxCell id="9aL6kzewTdgIK__dD09E-44" value="Database server" style="shape=folder;fontStyle=1;tabWidth=110;tabHeight=30;tabPosition=left;html=1;boundedLbl=1;labelInHeader=1;container=1;collapsible=0;whiteSpace=wrap;" parent="1" vertex="1">
          <mxGeometry x="1230" y="60" width="330" height="340" as="geometry" />
        </mxCell>
        <mxCell id="9aL6kzewTdgIK__dD09E-45" value="" style="html=1;strokeColor=none;resizeWidth=1;resizeHeight=1;fillColor=none;part=1;connectable=0;allowArrows=0;deletable=0;whiteSpace=wrap;" parent="9aL6kzewTdgIK__dD09E-44" vertex="1">
          <mxGeometry width="330" height="114.99999999999999" relative="1" as="geometry">
            <mxPoint y="30" as="offset" />
          </mxGeometry>
        </mxCell>
        <mxCell id="pcDt08t7TPFQF_xxmRWC-3" value="Database" style="verticalAlign=top;align=left;shape=cube;size=10;direction=south;fontStyle=0;html=1;boundedLbl=1;spacingLeft=5;whiteSpace=wrap;" parent="9aL6kzewTdgIK__dD09E-44" vertex="1">
          <mxGeometry x="42.36999999999989" y="100" width="245.25" height="169.85" as="geometry" />
        </mxCell>
        <mxCell id="pcDt08t7TPFQF_xxmRWC-4" value="«component»&lt;br&gt;&lt;b&gt;Database&lt;br&gt;&lt;/b&gt;" style="html=1;dropTarget=0;whiteSpace=wrap;fillColor=#f8cecc;strokeColor=#b85450;" parent="9aL6kzewTdgIK__dD09E-44" vertex="1">
          <mxGeometry x="75" y="154.85000000000002" width="180" height="90" as="geometry" />
        </mxCell>
        <mxCell id="pcDt08t7TPFQF_xxmRWC-5" value="" style="shape=module;jettyWidth=8;jettyHeight=4;" parent="pcDt08t7TPFQF_xxmRWC-4" vertex="1">
          <mxGeometry x="1" width="20" height="20" relative="1" as="geometry">
            <mxPoint x="-27" y="7" as="offset" />
          </mxGeometry>
        </mxCell>
        <mxCell id="9aL6kzewTdgIK__dD09E-65" value="External system" style="shape=folder;fontStyle=1;tabWidth=110;tabHeight=30;tabPosition=left;html=1;boundedLbl=1;labelInHeader=1;container=1;collapsible=0;whiteSpace=wrap;" parent="1" vertex="1">
          <mxGeometry x="1260" y="600" width="300" height="230" as="geometry" />
        </mxCell>
        <mxCell id="9aL6kzewTdgIK__dD09E-66" value="" style="html=1;strokeColor=none;resizeWidth=1;resizeHeight=1;fillColor=none;part=1;connectable=0;allowArrows=0;deletable=0;whiteSpace=wrap;" parent="9aL6kzewTdgIK__dD09E-65" vertex="1">
          <mxGeometry width="300" height="77.79411764705881" relative="1" as="geometry">
            <mxPoint y="30" as="offset" />
          </mxGeometry>
        </mxCell>
        <mxCell id="9aL6kzewTdgIK__dD09E-67" value="AI_Module API" style="verticalAlign=top;align=left;shape=cube;size=10;direction=south;fontStyle=0;html=1;boundedLbl=1;spacingLeft=5;whiteSpace=wrap;" parent="9aL6kzewTdgIK__dD09E-65" vertex="1">
          <mxGeometry x="31.58" y="59.35" width="208.42" height="120.65" as="geometry" />
        </mxCell>
        <mxCell id="9aL6kzewTdgIK__dD09E-75" style="edgeStyle=orthogonalEdgeStyle;rounded=0;orthogonalLoop=1;jettySize=auto;html=1;exitX=0;exitY=0;exitDx=77.525;exitDy=0;exitPerimeter=0;entryX=0;entryY=0;entryDx=0;entryDy=135;entryPerimeter=0;startArrow=classic;startFill=1;" parent="1" source="9aL6kzewTdgIK__dD09E-1" target="9aL6kzewTdgIK__dD09E-43" edge="1">
          <mxGeometry relative="1" as="geometry" />
        </mxCell>
        <mxCell id="9aL6kzewTdgIK__dD09E-85" value=":443" style="edgeLabel;html=1;align=center;verticalAlign=middle;resizable=0;points=[];fontSize=18;" parent="9aL6kzewTdgIK__dD09E-75" vertex="1" connectable="0">
          <mxGeometry x="0.3927" y="3" relative="1" as="geometry">
            <mxPoint y="-1" as="offset" />
          </mxGeometry>
        </mxCell>
        <mxCell id="9aL6kzewTdgIK__dD09E-78" style="edgeStyle=orthogonalEdgeStyle;rounded=0;orthogonalLoop=1;jettySize=auto;html=1;exitX=0;exitY=0;exitDx=0;exitDy=205.24;exitPerimeter=0;entryX=0;entryY=0;entryDx=165.05;entryDy=122.09000000000002;entryPerimeter=0;" parent="1" source="9aL6kzewTdgIK__dD09E-22" target="9aL6kzewTdgIK__dD09E-1" edge="1">
          <mxGeometry relative="1" as="geometry" />
        </mxCell>
        <mxCell id="9aL6kzewTdgIK__dD09E-86" value="&lt;font style=&quot;font-size: 18px;&quot;&gt;:443&lt;/font&gt;" style="edgeLabel;html=1;align=center;verticalAlign=middle;resizable=0;points=[];" parent="9aL6kzewTdgIK__dD09E-78" vertex="1" connectable="0">
          <mxGeometry x="-0.5715" y="6" relative="1" as="geometry">
            <mxPoint x="-42" y="-29" as="offset" />
          </mxGeometry>
        </mxCell>
        <mxCell id="9aL6kzewTdgIK__dD09E-79" style="edgeStyle=orthogonalEdgeStyle;rounded=0;orthogonalLoop=1;jettySize=auto;html=1;exitX=0;exitY=0;exitDx=0;exitDy=130;exitPerimeter=0;startArrow=classic;startFill=1;" parent="1" source="9aL6kzewTdgIK__dD09E-65" edge="1">
          <mxGeometry relative="1" as="geometry">
            <Array as="points">
              <mxPoint x="1180" y="730" />
              <mxPoint x="1180" y="1070" />
              <mxPoint x="348" y="1070" />
            </Array>
            <mxPoint x="350" y="1030" as="targetPoint" />
          </mxGeometry>
        </mxCell>
        <mxCell id="9aL6kzewTdgIK__dD09E-84" value="API" style="edgeLabel;html=1;align=center;verticalAlign=middle;resizable=0;points=[];fontSize=18;" parent="9aL6kzewTdgIK__dD09E-79" vertex="1" connectable="0">
          <mxGeometry x="-0.4486" y="-4" relative="1" as="geometry">
            <mxPoint y="-142" as="offset" />
          </mxGeometry>
        </mxCell>
        <mxCell id="9aL6kzewTdgIK__dD09E-82" style="edgeStyle=orthogonalEdgeStyle;rounded=0;orthogonalLoop=1;jettySize=auto;html=1;exitX=0;exitY=0;exitDx=89.925;exitDy=245.25000000000003;exitPerimeter=0;entryX=0;entryY=0;entryDx=167.22;entryDy=0;entryPerimeter=0;startArrow=classic;startFill=1;" parent="1" source="pcDt08t7TPFQF_xxmRWC-3" target="9aL6kzewTdgIK__dD09E-13" edge="1">
          <mxGeometry relative="1" as="geometry" />
        </mxCell>
        <mxCell id="9aL6kzewTdgIK__dD09E-83" value=":3306" style="edgeLabel;html=1;align=center;verticalAlign=middle;resizable=0;points=[];fontSize=18;" parent="9aL6kzewTdgIK__dD09E-82" vertex="1" connectable="0">
          <mxGeometry x="-0.483" y="1" relative="1" as="geometry">
            <mxPoint y="67" as="offset" />
          </mxGeometry>
        </mxCell>
      </root>
    </mxGraphModel>
  </diagram>
</mxfile>
